<?xml version="1.0" encoding="UTF-8" standalone="no"?>
<svg viewBox="0 0 24 24" >
  <rect
     x="1.3830513"
     y="12.474577"
     width="10"
     height="10"
     rx="1.4285712"
  />
  <rect
     x="1.3830513"
     y="1.525423"
     width="10"
     height="10"
     rx="1.4285712"
     id="rect3-9"
   />
   <rect
     x="12.616949"
     y="1.525423"
     width="10"
     height="10"
     rx="1.4285712"
   />
  <g transform="matrix(0.06487822,0,0,0.06266025,10.697447,9.4897037)">
    <path
       d="m 54.702366,87.561879 c 15.76654,-9.847019 50.975194,-8.335257 53.147954,15.944641 0.92032,10.27448 -17.101904,22.64902 -23.205744,29.79765 -2.9612,3.46844 -7.21562,8.70772 -5.45969,13.62093 1.92416,5.38401 8.10079,7.61798 12.97739,9.40584 11.911574,4.36834 37.803844,4.60331 43.340254,17.83858 5.55343,13.27783 -22.25543,19.28418 -30.56983,20.64211 -36.103848,4.62887 -49.01881,-22.39917 -61.298034,-41.07479 1.60184,37.30751 36.61425,56.63597 70.663014,49.01714 10.12268,-2.26548 21.67139,-6.14513 27.90677,-14.97545 14.72174,-20.84729 -8.93845,-32.14315 -21.94725,-45.11024 -5.5381,-5.52023 -11.08302,-11.15028 -8.69324,-19.58046 2.78991,-9.8437 14.06192,-24.259461 25.72047,-18.79764 8.00875,3.75204 13.12544,12.87668 16.80758,20.50036 3.98522,8.25395 7.67076,19.66134 6.8824,28.94629 -0.90755,10.70076 -3.16808,20.87582 -7.51411,30.64901 12.77382,-7.38385 20.92305,-22.00343 25.03854,-35.75718 9.92176,-33.15337 0.65469,-69.581685 -29.29535,-89.392951 -1.41326,4.87447 -3.27093,9.567004 -6.4099,13.621102 -7.74909,10.007243 -32.63353,15.848518 -31.34542,-4.256126 2.19958,-8.717459 9.21825,-16.823077 16.47128,-20.432675 -25.52304,-8.302052 -58.033054,-2.321782 -77.440344,17.060773 -16.20107,16.180294 -21.218055,46.268137 -21.218055,46.268137 0,0 10.917945,-14.864481 25.441315,-23.935051 z"
    />
    <path
       d="m 60.174092,126.58838 c 8.004132,-3.34364 19.933462,-7.43347 26.133392,-14.55267 11.96589,-14.284316 -19.40832,-31.005054 -25.4489,-11.83886 -2.450813,7.77608 -0.684492,18.28265 -0.684492,26.39153 z"
    />
  </g>
</svg>
